# xmcd
#
# Track frame offsets: 
#        182
#        22732
#        40150
#        63877
#        84575
#        107785
#        131455
#        155417
#        174645
#        200145
#        227237
#        249115
#
# Disc length: 3533 seconds
#
# Revision: 0
# Processed by: cddbd v1.5.2PL0 Copyright (c) Steve Scherf et al.
# Submitted via: ExactAudioCopy v0.99pb5
#
DISCID=930dcb0c
DTITLE=The King Bees - Pollenatin'
DYEAR=1900
DGENRE=Blues
TTITLE0=Run Your Reputation Down
TTITLE1=Plenty Big Love
TTITLE2=Buzzin' At The Beehive
TTITLE3=A Liitle Light
TTITLE4=Pollenatin'
TTITLE5=Under My Skin
TTITLE6=Mean Old Bedbug Blues
TTITLE7=It's Tight
TTITLE8=Stuck In A Groove
TTITLE9=Poisonous
TTITLE10=Monkeyshines
TTITLE11=Prisoner Blues
EXTD=
EXTT0=
EXTT1=
EXTT2=
EXTT3=
EXTT4=
EXTT5=
EXTT6=
EXTT7=
EXTT8=
EXTT9=
EXTT10=
EXTT11=
PLAYORDER=
